<svg xmlns="http://www.w3.org/2000/svg" viewBox="0 0 48 48" fill="none">
  <!-- SS Monogram — Clean Confidence -->
  <!-- First S (left, teal primary) -->
  <path d="M8 14C8 10.686 10.686 8 14 8H20C22.21 8 24 9.79 24 12C24 14.21 22.21 16 20 16H14C11.79 16 10 17.79 10 20C10 22.21 11.79 24 14 24H20C22.21 24 24 22.21 24 20" stroke="#0D9488" stroke-width="3.5" stroke-linecap="round" stroke-linejoin="round"/>
  <!-- Second S (right, blue secondary, offset down) -->
  <path d="M24 28C24 25.79 25.79 24 28 24H34C36.21 24 38 25.79 38 28C38 30.21 36.21 32 34 32H28C25.79 32 24 33.79 24 36C24 38.21 25.79 40 28 40H34C37.314 40 40 37.314 40 34" stroke="#1E40AF" stroke-width="3.5" stroke-linecap="round" stroke-linejoin="round"/>
  <!-- Connecting diagonal — shows unity -->
  <line x1="24" y1="20" x2="24" y2="28" stroke="#0D9488" stroke-width="2" stroke-linecap="round" opacity="0.4"/>
</svg>
